# Blender v2.79 (sub 0) OBJ File: 'processing.blend'
# www.blender.org
v -0.005888 0.949765 -0.024233
v -0.008454 0.950272 -0.023837
v -0.008564 0.952028 -0.024085
v -0.005684 0.951092 -0.024228
v -0.010029 0.946256 -0.020383
v -0.010161 0.944852 -0.017949
v -0.012436 0.945507 -0.018472
v -0.011990 0.946681 -0.020048
v -0.015372 0.946350 -0.018472
v -0.015250 0.947364 -0.020494
v -0.019029 0.946400 -0.017751
v -0.018423 0.947534 -0.019904
v -0.022036 0.946119 -0.016517
v -0.021694 0.947611 -0.018797
v -0.023407 0.945513 -0.015829
v -0.024167 0.947242 -0.017668
v -0.024927 0.945199 -0.014171
v -0.026739 0.946962 -0.015669
v -0.027284 0.944340 -0.012276
v -0.028342 0.945937 -0.013521
v -0.028166 0.943690 -0.010707
v -0.029311 0.945078 -0.011593
v -0.029961 0.943167 -0.008476
v -0.030402 0.944356 -0.008526
v -0.003475 0.950057 -0.024073
v -0.004555 0.949110 -0.024118
v -0.007380 0.944186 -0.018467
v -0.007474 0.945530 -0.020797
v -0.009787 0.947369 -0.022680
v -0.011709 0.947876 -0.022713
v -0.015096 0.948151 -0.022405
v -0.018076 0.948983 -0.021584
v -0.021683 0.949269 -0.020306
v -0.024536 0.949544 -0.018483
v -0.026943 0.949126 -0.016335
v -0.028788 0.947832 -0.013885
v -0.030258 0.946719 -0.011748
v -0.031140 0.945072 -0.008443
v -0.005700 0.944362 -0.021077
v -0.004995 0.943475 -0.020229
v -0.007099 0.947016 -0.022746
v -0.004918 0.946620 -0.023071
v -0.010916 0.950696 -0.023903
v -0.010795 0.952579 -0.023947
v -0.014276 0.951351 -0.023556
v -0.014083 0.952860 -0.023346
v -0.017916 0.951731 -0.022206
v -0.017674 0.953235 -0.022273
v -0.021342 0.951549 -0.020455
v -0.021188 0.953251 -0.020036
v -0.024635 0.951307 -0.018026
v -0.024569 0.952871 -0.017371
v -0.027092 0.951004 -0.015625
v -0.027301 0.952486 -0.014281
v -0.028882 0.950272 -0.012778
v -0.029080 0.951902 -0.011379
v -0.030176 0.949644 -0.010217
v -0.030683 0.950514 -0.008410
v -0.031382 0.947259 -0.008608
v -0.031597 0.947722 -0.005976
v -0.003183 0.946301 -0.023099
v -0.031305 0.944340 -0.005893
v 0.005888 0.949765 -0.024233
v 0.005684 0.951092 -0.024228
v 0.008564 0.952028 -0.024085
v 0.008454 0.950272 -0.023837
v 0.010029 0.946256 -0.020383
v 0.011990 0.946681 -0.020048
v 0.012436 0.945507 -0.018472
v 0.010161 0.944852 -0.017949
v 0.015250 0.947364 -0.020494
v 0.015372 0.946350 -0.018472
v 0.018423 0.947534 -0.019904
v 0.019029 0.946400 -0.017751
v 0.021694 0.947611 -0.018797
v 0.022036 0.946119 -0.016517
v 0.024167 0.947242 -0.017668
v 0.023407 0.945513 -0.015829
v 0.026739 0.946962 -0.015669
v 0.024927 0.945199 -0.014171
v 0.028342 0.945937 -0.013521
v 0.027284 0.944340 -0.012276
v 0.029311 0.945078 -0.011593
v 0.028166 0.943690 -0.010707
v 0.030402 0.944356 -0.008526
v 0.029961 0.943167 -0.008476
v 0.004555 0.949110 -0.024118
v 0.003475 0.950057 -0.024073
v 0.007380 0.944186 -0.018467
v 0.007474 0.945530 -0.020797
v 0.009787 0.947369 -0.022680
v 0.011709 0.947876 -0.022713
v 0.015096 0.948151 -0.022405
v 0.018076 0.948983 -0.021584
v 0.021683 0.949269 -0.020306
v 0.024536 0.949544 -0.018483
v 0.026943 0.949126 -0.016335
v 0.028788 0.947832 -0.013885
v 0.030258 0.946719 -0.011748
v 0.031140 0.945072 -0.008443
v 0.004995 0.943475 -0.020229
v 0.005700 0.944362 -0.021077
v 0.007099 0.947016 -0.022746
v 0.004918 0.946620 -0.023071
v 0.010795 0.952579 -0.023947
v 0.010916 0.950696 -0.023903
v 0.014083 0.952860 -0.023346
v 0.014276 0.951351 -0.023556
v 0.017674 0.953235 -0.022273
v 0.017916 0.951731 -0.022206
v 0.021188 0.953251 -0.020036
v 0.021342 0.951549 -0.020455
v 0.024569 0.952871 -0.017371
v 0.024635 0.951307 -0.018026
v 0.027301 0.952486 -0.014281
v 0.027092 0.951004 -0.015625
v 0.029080 0.951902 -0.011379
v 0.028882 0.950272 -0.012778
v 0.030683 0.950514 -0.008410
v 0.030176 0.949644 -0.010217
v 0.031597 0.947722 -0.005976
v 0.031382 0.947259 -0.008608
v 0.003183 0.946301 -0.023099
v 0.031305 0.944340 -0.005893
vt 0.139200 0.198800
vt 0.066300 0.215900
vt 0.070400 0.178800
vt 0.194700 0.081800
vt 0.273300 0.043600
vt 0.255600 0.087600
vt 0.364600 0.074900
vt 0.346500 0.115300
vt 0.440100 0.128500
vt 0.471300 0.088200
vt 0.537900 0.134800
vt 0.564500 0.086000
vt 0.631800 0.129800
vt 0.639900 0.086300
vt 0.702200 0.122900
vt 0.710700 0.075200
vt 0.785800 0.101400
vt 0.797800 0.064500
vt 0.845900 0.081200
vt 0.838800 0.051100
vt 0.919000 0.069800
vt 0.026400 0.160700
vt 0.149300 0.010900
vt 0.126800 0.063500
vt 0.219300 0.154000
vt 0.163400 0.142200
vt 0.314400 0.171800
vt 0.420400 0.186700
vt 0.536700 0.189700
vt 0.633900 0.188500
vt 0.714400 0.179300
vt 0.790900 0.147300
vt 0.860400 0.120300
vt 0.931000 0.087900
vt 0.085400 0.052000
vt 0.062600 0.000100
vt 0.102200 0.124800
vt 0.042800 0.100200
vt 0.140500 0.247900
vt 0.208200 0.213100
vt 0.213400 0.266100
vt 0.306100 0.232000
vt 0.303600 0.282600
vt 0.422200 0.289700
vt 0.419700 0.243900
vt 0.530200 0.289700
vt 0.640700 0.237800
vt 0.646400 0.283100
vt 0.726300 0.232100
vt 0.747800 0.279200
vt 0.814300 0.212100
vt 0.847100 0.254500
vt 0.887800 0.196300
vt 0.931900 0.222600
vt 0.962300 0.141600
vt 0.999900 0.160800
vt 0.015500 0.082800
vt 0.949600 0.078200
vt 0.531600 0.241800
vt 0.933700 0.505700
vt 0.860800 0.488500
vt 0.929600 0.468500
vt 0.805400 0.371600
vt 0.726800 0.333300
vt 0.782000 0.311000
vt 0.744500 0.377300
vt 0.635500 0.364600
vt 0.560000 0.418200
vt 0.653600 0.405000
vt 0.462200 0.424500
vt 0.528800 0.377900
vt 0.368300 0.419500
vt 0.435600 0.375700
vt 0.297800 0.412700
vt 0.360100 0.376000
vt 0.214200 0.391100
vt 0.289400 0.364900
vt 0.154100 0.370900
vt 0.202200 0.354200
vt 0.081000 0.359500
vt 0.161200 0.340800
vt 0.973600 0.450500
vt 0.850800 0.300700
vt 0.780800 0.443800
vt 0.836600 0.432000
vt 0.685600 0.461500
vt 0.579600 0.476400
vt 0.463300 0.479400
vt 0.366200 0.478200
vt 0.285600 0.469000
vt 0.209100 0.437100
vt 0.139600 0.410100
vt 0.069000 0.377600
vt 0.914700 0.341800
vt 0.873300 0.353300
vt 0.897900 0.414500
vt 0.859500 0.537700
vt 0.791900 0.502800
vt 0.786600 0.555800
vt 0.693900 0.521700
vt 0.577900 0.579400
vt 0.696500 0.572300
vt 0.469900 0.579400
vt 0.580400 0.533600
vt 0.359400 0.527500
vt 0.468500 0.531500
vt 0.353700 0.572800
vt 0.273700 0.521800
vt 0.252300 0.569000
vt 0.185700 0.501800
vt 0.152900 0.544300
vt 0.112200 0.486000
vt 0.068100 0.512400
vt 0.037700 0.431300
vt 0.984500 0.372700
vt 0.957300 0.390000
vt 0.050300 0.367900
vt 0.000100 0.450600
vt 0.218000 0.021200
vt 0.914700 0.040000
vt 0.000100 0.183400
vt 0.085300 0.329700
vt 0.999900 0.473200
vt 0.937500 0.289900
vn -0.0842 -0.2438 -0.9661
vn -0.0445 -0.0254 -0.9987
vn -0.0913 -0.1865 -0.9782
vn -0.2626 -0.8393 -0.4761
vn -0.2009 -0.7841 -0.5872
vn -0.2106 -0.8319 -0.5134
vn -0.1385 -0.8618 -0.4879
vn -0.1749 -0.8770 -0.4475
vn -0.1905 -0.7866 -0.5874
vn -0.1512 -0.8463 -0.5108
vn -0.2684 -0.7033 -0.6582
vn -0.0971 -0.7903 -0.6050
vn -0.3597 -0.5799 -0.7309
vn -0.2307 -0.7688 -0.5965
vn -0.5268 -0.5242 -0.6691
vn -0.3225 -0.7685 -0.5526
vn -0.5465 -0.5437 -0.6370
vn -0.3775 -0.7111 -0.5932
vn -0.6183 -0.6126 -0.4923
vn -0.5533 -0.6719 -0.4923
vn -0.7490 -0.5329 -0.3935
vn 0.0359 -0.2331 -0.9718
vn -0.4042 -0.7989 -0.4454
vn -0.3946 -0.7651 -0.5087
vn -0.1530 -0.6468 -0.7471
vn -0.1552 -0.6469 -0.7466
vn -0.2536 -0.6364 -0.7285
vn -0.3288 -0.4637 -0.8227
vn -0.4271 -0.3283 -0.8425
vn -0.5853 -0.1247 -0.8012
vn -0.7182 -0.0483 -0.6941
vn -0.8017 -0.0536 -0.5953
vn -0.8635 -0.1382 -0.4850
vn -0.8783 -0.4006 -0.2610
vn -0.3204 -0.7255 -0.6090
vn -0.3292 -0.7761 -0.5377
vn -0.1988 -0.5490 -0.8118
vn -0.1581 -0.4947 -0.8545
vn -0.0531 -0.1123 -0.9922
vn -0.0876 -0.2011 -0.9756
vn -0.0960 0.0070 -0.9953
vn -0.2302 -0.0804 -0.9698
vn -0.2159 0.1611 -0.9630
vn -0.4276 0.0501 -0.9026
vn -0.4183 -0.0621 -0.9061
vn -0.5360 0.2355 -0.8107
vn -0.6430 0.2395 -0.7274
vn -0.6549 0.3352 -0.6773
vn -0.7706 0.2738 -0.5755
vn -0.8002 0.3362 -0.4966
vn -0.8628 0.2354 -0.4473
vn -0.8744 0.2553 -0.4127
vn -0.8987 0.2288 -0.3740
vn -0.9273 0.2267 -0.2977
vn -0.9742 0.0472 -0.2204
vn -0.9950 0.0329 -0.0946
vn -0.0499 -0.5000 -0.8645
vn -0.9517 -0.2575 -0.1672
vn -0.4944 0.1192 -0.8610
vn 0.0445 -0.0254 -0.9987
vn 0.0842 -0.2439 -0.9661
vn 0.0913 -0.1865 -0.9782
vn 0.2626 -0.8393 -0.4761
vn 0.2009 -0.7841 -0.5872
vn 0.2161 -0.8406 -0.4966
vn 0.2106 -0.8319 -0.5134
vn 0.1385 -0.8618 -0.4879
vn 0.1905 -0.7866 -0.5874
vn 0.1749 -0.8770 -0.4475
vn 0.2684 -0.7033 -0.6582
vn 0.1512 -0.8463 -0.5107
vn 0.3597 -0.5799 -0.7310
vn 0.0971 -0.7902 -0.6050
vn 0.5268 -0.5242 -0.6691
vn 0.2307 -0.7687 -0.5965
vn 0.5465 -0.5437 -0.6370
vn 0.3225 -0.7685 -0.5526
vn 0.6183 -0.6126 -0.4923
vn 0.3775 -0.7111 -0.5932
vn 0.7490 -0.5329 -0.3935
vn 0.5533 -0.6719 -0.4922
vn -0.0359 -0.2331 -0.9718
vn 0.4042 -0.7989 -0.4454
vn 0.1530 -0.6468 -0.7471
vn 0.1552 -0.6469 -0.7466
vn 0.2536 -0.6364 -0.7284
vn 0.3288 -0.4637 -0.8227
vn 0.4271 -0.3283 -0.8425
vn 0.5853 -0.1247 -0.8011
vn 0.7182 -0.0483 -0.6941
vn 0.8017 -0.0536 -0.5953
vn 0.8635 -0.1382 -0.4850
vn 0.8783 -0.4006 -0.2610
vn 0.3204 -0.7255 -0.6090
vn 0.3946 -0.7652 -0.5087
vn 0.1988 -0.5490 -0.8118
vn 0.0531 -0.1123 -0.9922
vn 0.0876 -0.2011 -0.9756
vn 0.0960 0.0070 -0.9953
vn 0.2302 -0.0804 -0.9698
vn 0.4276 0.0501 -0.9026
vn 0.2159 0.1611 -0.9630
vn 0.5360 0.2355 -0.8107
vn 0.4183 -0.0621 -0.9061
vn 0.6430 0.2395 -0.7274
vn 0.4944 0.1192 -0.8610
vn 0.6549 0.3352 -0.6773
vn 0.7706 0.2738 -0.5755
vn 0.8002 0.3362 -0.4966
vn 0.8628 0.2354 -0.4473
vn 0.8743 0.2553 -0.4127
vn 0.8987 0.2288 -0.3740
vn 0.9273 0.2267 -0.2977
vn 0.9742 0.0472 -0.2204
vn 0.0499 -0.5000 -0.8645
vn 0.1581 -0.4947 -0.8545
vn 0.9517 -0.2575 -0.1671
vn 0.9950 0.0329 -0.0946
vn -0.2161 -0.8406 -0.4966
vn -0.7971 -0.3166 -0.5141
vn 0.1416 -0.1157 -0.9831
vn 0.7971 -0.3166 -0.5140
vn -0.1416 -0.1157 -0.9831
vn 0.3292 -0.7761 -0.5377
s 1
f 2/1/1 4/2/2 1/3/3
f 5/4/4 7/5/5 8/6/6
f 8/6/6 9/7/7 10/8/8
f 9/7/7 12/9/9 10/8/8
f 11/10/10 14/11/11 12/9/9
f 13/12/12 16/13/13 14/11/11
f 15/14/14 18/15/15 16/13/13
f 17/16/16 20/17/17 18/15/15
f 19/18/18 22/19/19 20/17/17
f 21/20/20 24/21/21 22/19/19
f 4/2/2 26/22/22 1/3/3
f 27/23/23 5/4/4 28/24/24
f 5/4/4 30/25/25 29/26/26
f 8/6/6 31/27/27 30/25/25
f 10/8/8 32/28/28 31/27/27
f 12/9/9 33/29/29 32/28/28
f 14/11/11 34/30/30 33/29/29
f 16/13/13 35/31/31 34/30/30
f 18/15/15 36/32/32 35/31/31
f 20/17/17 37/33/33 36/32/32
f 22/19/19 38/34/34 37/33/33
f 27/23/23 39/35/35 40/36/36
f 41/37/37 2/1/1 1/3/3
f 41/37/37 26/22/22 42/38/38
f 3/39/39 43/40/40 44/41/41
f 44/41/41 45/42/42 46/43/43
f 45/42/42 48/44/44 46/43/43
f 47/45/45 50/46/46 48/44/44
f 50/46/46 51/47/47 52/48/48
f 52/48/48 53/49/49 54/50/50
f 54/50/50 55/51/51 56/52/52
f 56/52/52 57/53/53 58/54/54
f 58/54/54 59/55/55 60/56/56
f 26/22/22 61/57/57 42/38/38
f 24/21/21 62/58/58 38/34/34
f 29/26/26 43/40/40 2/1/1
f 30/25/25 45/42/42 43/40/40
f 31/27/27 47/45/45 45/42/42
f 32/28/28 49/59/59 47/45/45
f 49/59/59 34/30/30 51/47/47
f 51/47/47 35/31/31 53/49/49
f 53/49/49 36/32/32 55/51/51
f 55/51/51 37/33/33 57/53/53
f 37/33/33 59/55/55 57/53/53
f 28/24/24 29/26/26 41/37/37
f 41/37/37 39/35/35 28/24/24
f 39/35/35 61/57/57 40/36/36
f 38/34/34 60/56/56 59/55/55
f 64/60/60 66/61/61 63/62/62
f 67/63/63 69/64/64 70/65/65
f 68/66/66 72/67/67 69/64/64
f 73/68/68 72/67/67 71/69/69
f 75/70/70 74/71/71 73/68/68
f 77/72/72 76/73/73 75/70/70
f 79/74/74 78/75/75 77/72/72
f 81/76/76 80/77/77 79/74/74
f 83/78/78 82/79/79 81/76/76
f 85/80/80 84/81/81 83/78/78
f 87/82/82 64/60/60 63/62/62
f 89/83/83 67/63/63 70/65/65
f 92/84/84 67/63/63 91/85/85
f 93/86/86 68/66/66 92/84/84
f 94/87/87 71/69/69 93/86/86
f 95/88/88 73/68/68 94/87/87
f 96/89/89 75/70/70 95/88/88
f 97/90/90 77/72/72 96/89/89
f 98/91/91 79/74/74 97/90/90
f 99/92/92 81/76/76 98/91/91
f 100/93/93 83/78/78 99/92/92
f 89/83/83 102/94/94 90/95/95
f 103/96/96 66/61/61 91/85/85
f 103/96/96 87/82/82 63/62/62
f 65/97/97 106/98/98 66/61/61
f 105/99/99 108/100/100 106/98/98
f 109/101/101 108/100/100 107/102/102
f 111/103/103 110/104/104 109/101/101
f 111/103/103 114/105/105 112/106/106
f 113/107/107 116/108/108 114/105/105
f 115/109/109 118/110/110 116/108/108
f 117/111/111 120/112/112 118/110/110
f 119/113/113 122/114/114 120/112/112
f 123/115/115 87/82/82 104/116/116
f 124/117/117 85/80/80 100/93/93
f 106/98/98 91/85/85 66/61/61
f 108/100/100 92/84/84 106/98/98
f 110/104/104 93/86/86 108/100/100
f 112/106/106 94/87/87 110/104/104
f 112/106/106 96/89/89 95/88/88
f 114/105/105 97/90/90 96/89/89
f 116/108/108 98/91/91 97/90/90
f 118/110/110 99/92/92 98/91/91
f 122/114/114 99/92/92 120/112/112
f 90/95/95 91/85/85 67/63/63
f 102/94/94 103/96/96 90/95/95
f 102/94/94 123/115/115 104/116/116
f 121/118/118 100/93/93 122/114/114
f 2/1/1 3/39/39 4/2/2
f 5/4/4 6/119/119 7/5/5
f 8/6/6 7/5/5 9/7/7
f 9/7/7 11/10/10 12/9/9
f 11/10/10 13/12/12 14/11/11
f 13/12/12 15/14/14 16/13/13
f 15/14/14 17/16/16 18/15/15
f 17/16/16 19/18/18 20/17/17
f 19/18/18 21/20/20 22/19/19
f 21/20/20 23/120/120 24/21/21
f 4/2/2 25/121/121 26/22/22
f 27/23/23 6/119/119 5/4/4
f 5/4/4 8/6/6 30/25/25
f 8/6/6 10/8/8 31/27/27
f 10/8/8 12/9/9 32/28/28
f 12/9/9 14/11/11 33/29/29
f 14/11/11 16/13/13 34/30/30
f 16/13/13 18/15/15 35/31/31
f 18/15/15 20/17/17 36/32/32
f 20/17/17 22/19/19 37/33/33
f 22/19/19 24/21/21 38/34/34
f 27/23/23 28/24/24 39/35/35
f 41/37/37 29/26/26 2/1/1
f 41/37/37 1/3/3 26/22/22
f 3/39/39 2/1/1 43/40/40
f 44/41/41 43/40/40 45/42/42
f 45/42/42 47/45/45 48/44/44
f 47/45/45 49/59/59 50/46/46
f 50/46/46 49/59/59 51/47/47
f 52/48/48 51/47/47 53/49/49
f 54/50/50 53/49/49 55/51/51
f 56/52/52 55/51/51 57/53/53
f 58/54/54 57/53/53 59/55/55
f 26/22/22 25/121/121 61/57/57
f 24/21/21 23/120/120 62/58/58
f 29/26/26 30/25/25 43/40/40
f 30/25/25 31/27/27 45/42/42
f 31/27/27 32/28/28 47/45/45
f 32/28/28 33/29/29 49/59/59
f 49/59/59 33/29/29 34/30/30
f 51/47/47 34/30/30 35/31/31
f 53/49/49 35/31/31 36/32/32
f 55/51/51 36/32/32 37/33/33
f 37/33/33 38/34/34 59/55/55
f 28/24/24 5/4/4 29/26/26
f 41/37/37 42/38/38 39/35/35
f 39/35/35 42/38/38 61/57/57
f 38/34/34 62/58/58 60/56/56
f 64/60/60 65/97/97 66/61/61
f 67/63/63 68/66/66 69/64/64
f 68/66/66 71/69/69 72/67/67
f 73/68/68 74/71/71 72/67/67
f 75/70/70 76/73/73 74/71/71
f 77/72/72 78/75/75 76/73/73
f 79/74/74 80/77/77 78/75/75
f 81/76/76 82/79/79 80/77/77
f 83/78/78 84/81/81 82/79/79
f 85/80/80 86/122/122 84/81/81
f 87/82/82 88/123/123 64/60/60
f 89/83/83 90/95/95 67/63/63
f 92/84/84 68/66/66 67/63/63
f 93/86/86 71/69/69 68/66/66
f 94/87/87 73/68/68 71/69/69
f 95/88/88 75/70/70 73/68/68
f 96/89/89 77/72/72 75/70/70
f 97/90/90 79/74/74 77/72/72
f 98/91/91 81/76/76 79/74/74
f 99/92/92 83/78/78 81/76/76
f 100/93/93 85/80/80 83/78/78
f 89/83/83 101/124/124 102/94/94
f 103/96/96 63/62/62 66/61/61
f 103/96/96 104/116/116 87/82/82
f 65/97/97 105/99/99 106/98/98
f 105/99/99 107/102/102 108/100/100
f 109/101/101 110/104/104 108/100/100
f 111/103/103 112/106/106 110/104/104
f 111/103/103 113/107/107 114/105/105
f 113/107/107 115/109/109 116/108/108
f 115/109/109 117/111/111 118/110/110
f 117/111/111 119/113/113 120/112/112
f 119/113/113 121/118/118 122/114/114
f 123/115/115 88/123/123 87/82/82
f 124/117/117 86/122/122 85/80/80
f 106/98/98 92/84/84 91/85/85
f 108/100/100 93/86/86 92/84/84
f 110/104/104 94/87/87 93/86/86
f 112/106/106 95/88/88 94/87/87
f 112/106/106 114/105/105 96/89/89
f 114/105/105 116/108/108 97/90/90
f 116/108/108 118/110/110 98/91/91
f 118/110/110 120/112/112 99/92/92
f 122/114/114 100/93/93 99/92/92
f 90/95/95 103/96/96 91/85/85
f 102/94/94 104/116/116 103/96/96
f 102/94/94 101/124/124 123/115/115
f 121/118/118 124/117/117 100/93/93
