# Blender v2.79 (sub 0) OBJ File: 'processing.blend'
# www.blender.org
v -0.058362 0.567630 -0.005671
v 0.062849 0.566497 -0.001816
v 0.068473 0.577727 0.092183
v -0.026098 0.577814 0.113002
v -0.063064 0.579288 0.097316
v 0.036099 0.578305 0.111003
v -0.081840 0.571722 0.017744
v 0.084922 0.569826 0.021737
v -0.086915 0.575883 0.059424
v 0.092032 0.573797 0.057168
v -0.056113 0.459956 -0.009699
v 0.064756 0.454731 -0.007335
v -0.081988 0.355682 -0.004055
v 0.078255 0.350365 -0.001906
v -0.089873 0.290219 0.002274
v 0.089039 0.284278 0.004303
v -0.097669 0.460759 0.003016
v 0.104948 0.456095 0.008334
v -0.113014 0.361248 0.010195
v 0.110824 0.356694 0.011979
v -0.119445 0.293450 0.021406
v 0.119870 0.289936 0.017725
v -0.118425 0.455742 0.043528
v 0.117872 0.457673 0.051672
v -0.127430 0.360722 0.054661
v 0.126362 0.358861 0.052130
v -0.136831 0.291283 0.065703
v 0.136213 0.292473 0.059851
v -0.097243 0.445691 0.090906
v 0.079966 0.464926 0.105529
v -0.105690 0.357069 0.101036
v 0.111838 0.354220 0.103102
v -0.118583 0.291965 0.105429
v 0.119694 0.292728 0.103366
v -0.053379 0.444396 0.105454
v 0.031025 0.462135 0.106038
v -0.074012 0.349972 0.104116
v 0.074817 0.349694 0.105508
v -0.086101 0.289254 0.111716
v 0.084843 0.287676 0.111172
v 0.004489 0.515038 -0.012084
v -0.048530 0.484806 -0.005590
v 0.059797 0.481020 -0.003654
v 0.019904 0.485162 0.115817
v -0.073858 0.524696 -0.002209
v 0.080038 0.522737 0.003265
v -0.084695 0.497722 -0.001247
v 0.091344 0.498063 0.005267
v -0.094209 0.544961 0.071751
v 0.093465 0.543660 0.073780
v -0.094816 0.537603 0.030141
v 0.096558 0.535239 0.037251
v -0.106529 0.502941 0.037777
v 0.106444 0.507097 0.046337
v -0.097584 0.509484 0.085403
v 0.092673 0.512784 0.089449
v -0.082996 0.479024 0.107428
v 0.054277 0.488081 0.119670
v -0.042716 0.478022 0.115743
v -0.016625 0.485191 0.115725
v -0.067246 0.553301 0.110222
v 0.068565 0.556503 0.106240
v -0.067280 0.525095 0.118853
v 0.067340 0.524338 0.118951
v -0.032791 0.547464 0.123608
v 0.036423 0.551116 0.124267
v -0.040184 0.522188 0.127134
v 0.041082 0.523668 0.128365
v -0.018772 0.445928 0.087727
v 0.012679 0.444124 0.060781
v -0.047960 0.344903 0.073023
v 0.047579 0.346613 0.075335
v -0.042815 0.344481 0.041656
v 0.037941 0.342157 0.045608
v -0.054729 0.283434 0.084120
v 0.053919 0.281364 0.086725
v -0.051501 0.281636 0.050110
v 0.046157 0.277538 0.053872
v -0.005504 0.471498 0.082577
v 0.004732 0.471550 0.082612
v -0.025913 0.450760 0.003052
v 0.029250 0.445824 0.005971
v -0.062625 0.350284 0.005386
v 0.055750 0.344660 0.009135
v -0.068638 0.286087 0.017713
v 0.068644 0.279659 0.017216
v -0.006152 0.461083 0.035817
v 0.006963 0.462158 0.036979
v -0.014764 0.474290 0.010877
v 0.017216 0.473822 0.011894
v -0.010299 0.442552 0.030696
v 0.012139 0.440853 0.031945
v 0.004790 0.563578 -0.012514
v 0.002208 0.541849 0.126776
v 0.000083 0.485177 0.115767
v 0.001535 0.518080 0.127927
v 0.003316 0.575927 0.115720
vt 0.814939 0.135935
vt 0.782337 0.082905
vt 0.821335 0.092666
vt 0.116478 0.725025
vt 0.169562 0.765308
vt 0.113855 0.762626
vt 0.318082 0.230706
vt 0.377669 0.271642
vt 0.320957 0.267674
vt 0.427541 0.201394
vt 0.438313 0.272416
vt 0.228225 0.283634
vt 0.253895 0.237182
vt 0.269971 0.275602
vt 0.292250 0.466710
vt 0.330797 0.533714
vt 0.302256 0.539170
vt 0.070243 0.721367
vt 0.850622 0.175003
vt 0.862501 0.139739
vt 0.082943 0.526122
vt 0.106863 0.457109
vt 0.110124 0.529830
vt 0.374345 0.531369
vt 0.323295 0.460106
vt 0.368159 0.456999
vt 0.419425 0.460336
vt 0.152176 0.526728
vt 0.150425 0.450653
vt 0.634301 0.772111
vt 0.583452 0.748729
vt 0.652711 0.723354
vt 0.901640 0.480638
vt 0.967393 0.543790
vt 0.918758 0.553294
vt 0.838405 0.570048
vt 0.857613 0.493708
vt 0.880597 0.559760
vt 0.865632 0.238470
vt 0.820984 0.287767
vt 0.807393 0.233458
vt 0.732148 0.678834
vt 0.604602 0.499854
vt 0.678060 0.492523
vt 0.366652 0.213111
vt 0.410711 0.161024
vt 0.969781 0.210262
vt 0.921579 0.154841
vt 0.977075 0.160493
vt 0.671336 0.805244
vt 0.658578 0.853517
vt 0.642214 0.822571
vt 0.759995 0.160783
vt 0.771651 0.215477
vt 0.748996 0.208080
vt 0.759147 0.739837
vt 0.740744 0.798735
vt 0.707110 0.768812
vt 0.874460 0.103559
vt 0.933824 0.111700
vt 0.905294 0.201977
vt 0.890161 0.288961
vt 0.224457 0.811330
vt 0.231766 0.759957
vt 0.725467 0.856106
vt 0.700897 0.835137
vt 0.647756 0.906554
vt 0.684268 0.882424
vt 0.814687 0.170411
vt 0.167767 0.805582
vt 0.211972 0.862993
vt 0.166447 0.869874
vt 0.597476 0.846352
vt 0.587649 0.791093
vt 0.531959 0.431072
vt 0.562224 0.504600
vt 0.525818 0.507971
vt 0.249214 0.170047
vt 0.341409 0.112544
vt 0.357086 0.176828
vt 0.485609 0.507445
vt 0.506325 0.721817
vt 0.465754 0.712221
vt 0.487689 0.434737
vt 0.571901 0.428921
vt 0.613217 0.425850
vt 0.017943 0.734182
vt 0.014046 0.782254
vt 0.003110 0.744026
vt 0.173841 0.711582
vt 0.232738 0.691870
vt 0.809615 0.505481
vt 0.665842 0.422703
vt 0.964463 0.276585
vt 0.961793 0.467606
vt 0.795172 0.578367
vt 0.771166 0.513963
vt 0.054284 0.757949
vt 0.027737 0.710397
vt 0.079919 0.455452
vt 0.035725 0.518216
vt 0.033259 0.449716
vt 0.246631 0.475346
vt 0.252498 0.546236
vt 0.203894 0.511708
vt 0.201813 0.434596
vt 0.468089 0.742036
vt 0.530156 0.771873
vt 0.566919 0.810728
vt 0.768151 0.129664
vt 0.990146 0.110714
vt 0.616666 0.870872
vt 0.522322 0.784792
vt 0.058660 0.831450
vt 0.738787 0.257357
vt 0.782279 0.773229
vt 0.773203 0.829142
vt 0.386222 0.111914
vt 0.687284 0.298277
vt 0.768341 0.292002
vt 0.691120 0.324964
vt 0.217731 0.254809
vt 0.425255 0.533351
vt 0.260049 0.103719
vt 0.081494 0.895050
vt 0.816904 0.811321
vt 0.458862 0.758567
vn -0.1592 0.2620 0.9518
vn -0.0052 0.3482 0.9374
vn -0.1799 0.3778 0.9082
vn 0.0726 0.0048 -0.9973
vn -0.5364 0.1482 -0.8308
vn 0.0866 -0.0235 -0.9959
vn 0.0443 -0.0070 -0.9990
vn 0.7292 0.0980 -0.6772
vn 0.0130 0.0481 -0.9987
vn 0.9695 0.2370 -0.0626
vn 0.9845 0.1452 0.0980
vn -0.9319 -0.2338 -0.2772
vn -0.3305 -0.4682 -0.8195
vn -0.5827 -0.1188 -0.8039
vn -0.6635 -0.2090 -0.7183
vn -0.0511 -0.1205 -0.9914
vn -0.6996 -0.2037 -0.6849
vn 0.6153 -0.1431 -0.7751
vn -0.5234 0.0925 0.8470
vn -0.5943 0.3287 0.7339
vn 0.6306 -0.2105 -0.7469
vn 0.0148 -0.1562 -0.9876
vn -0.0214 -0.0874 -0.9959
vn 0.7244 0.0407 -0.6881
vn -0.0055 -0.0814 -0.9966
vn 0.7122 0.0362 -0.7010
vn 0.9923 0.1111 -0.0547
vn -0.7460 0.0150 -0.6657
vn -0.8032 -0.0076 -0.5956
vn 0.2343 -0.2604 0.9366
vn -0.4284 -0.4034 0.8085
vn 0.4969 -0.0009 0.8678
vn -0.5456 0.1649 0.8216
vn -0.9857 0.1517 0.0734
vn -0.6203 0.1744 0.7647
vn 0.8896 -0.0521 0.4536
vn 0.3609 0.0211 0.9324
vn 0.2554 0.0464 0.9657
vn -0.5354 -0.0981 0.8389
vn 0.1058 -0.2382 0.9654
vn 0.0694 -0.3520 0.9334
vn 0.6180 0.1108 0.7783
vn 0.6312 0.1656 -0.7577
vn 0.9470 0.2122 -0.2409
vn -0.9541 0.2315 -0.1898
vn -0.9190 0.2759 0.2814
vn -0.9200 0.2368 -0.3123
vn 0.5833 0.0520 0.8105
vn 0.2037 0.3050 0.9303
vn 0.1556 -0.0268 0.9874
vn -0.0193 -0.1492 0.9886
vn 0.0775 -0.6380 0.7661
vn -0.0021 -0.6941 0.7199
vn 0.9160 0.2261 0.3314
vn 0.8391 0.0998 0.5347
vn -0.6129 0.4307 0.6624
vn -0.9311 0.3244 0.1666
vn -0.8839 0.1669 0.4369
vn -0.6948 0.0132 0.7191
vn 0.6792 0.4036 0.6130
vn 0.6270 0.3530 0.6944
vn 0.2744 0.4458 0.8520
vn -0.1572 -0.0416 0.9867
vn -0.4749 0.1108 -0.8730
vn -0.8568 0.2206 -0.4660
vn -0.3805 0.0697 -0.9221
vn -0.1448 -0.5257 0.8383
vn -0.8516 -0.0279 0.5234
vn -0.3406 -0.0353 0.9395
vn -0.8567 -0.1525 0.4927
vn 0.0262 -0.1882 -0.9818
vn 0.4246 0.0691 -0.9027
vn 0.5516 0.1364 -0.8228
vn -0.9700 -0.2285 -0.0826
vn -0.9266 -0.3073 0.2166
vn -0.9842 -0.1248 -0.1257
vn -0.2471 0.0152 0.9688
vn 0.6534 0.0867 0.7520
vn 0.6755 -0.7206 -0.1564
vn -0.6030 -0.7737 -0.1943
vn -0.6545 0.0958 -0.7500
vn -0.9898 0.1385 -0.0321
vn 0.8964 -0.1522 0.4163
vn 0.9917 0.1285 -0.0046
vn -0.9920 0.1131 0.0550
vn 0.9761 -0.1437 -0.1629
vn 0.9527 -0.2433 -0.1818
vn 0.3876 -0.4557 -0.8013
vn 0.9399 -0.2682 -0.2112
vn 0.7418 -0.1966 -0.6411
vn -0.3744 -0.8430 0.3862
vn -0.0335 0.1743 0.9841
vn 0.4057 -0.8177 0.4082
vn 0.9603 0.2304 0.1570
vn 0.8690 0.1824 -0.4600
vn 0.7655 -0.3257 0.5548
vn 0.0370 -0.0091 -0.9993
s 1
f 65/1/1 97/2/2 4/3/3
f 11/4/4 47/5/5 42/6/6
f 43/7/7 18/8/8 12/9/9
f 18/8/8 54/10/10 24/11/11
f 92/12/12 90/13/13 82/14/14
f 84/15/15 16/16/16 86/17/17
f 42/6/6 81/18/18 11/4/4
f 63/19/19 65/1/1 61/20/20
f 83/21/21 15/22/22 13/23/23
f 22/24/24 14/25/25 20/26/26
f 26/27/27 22/24/24 20/26/26
f 19/28/28 15/22/22 21/29/29
f 58/30/30 36/31/31 30/32/32
f 31/33/33 27/34/34 33/35/35
f 75/36/36 37/37/37 39/38/38
f 31/33/33 39/38/38 37/37/37
f 57/39/39 35/40/40 59/41/41
f 24/42/11 32/43/42 26/44/27
f 48/45/43 52/46/44 54/10/10
f 53/47/45 49/48/46 51/49/47
f 64/50/48 66/51/49 68/52/50
f 49/48/46 63/19/19 61/20/20
f 96/53/51 60/54/52 95/55/53
f 54/56/10 50/57/54 56/58/55
f 49/48/46 5/59/56 9/60/57
f 57/39/39 55/61/58 29/62/59
f 63/19/19 55/61/58 57/39/39
f 51/63/47 47/5/5 53/64/45
f 50/57/54 3/65/60 62/66/61
f 97/67/2 66/51/49 6/68/62
f 59/41/41 60/54/52 67/69/63
f 45/70/64 7/71/65 1/72/66
f 96/73/51 44/74/67 68/52/50
f 76/75/68 38/76/69 72/77/70
f 24/42/11 56/58/55 30/32/32
f 41/78/71 2/79/72 46/80/73
f 74/81/74 70/82/75 92/83/12
f 82/14/14 43/7/7 12/9/9
f 72/77/70 78/84/76 76/75/68
f 32/43/42 40/85/77 34/86/78
f 87/87/79 90/88/13 88/89/80
f 56/58/55 64/50/48 58/30/30
f 53/64/45 17/90/81 23/91/82
f 71/92/83 35/40/40 37/37/37
f 32/43/42 28/93/84 26/44/27
f 23/94/82 55/61/58 53/47/45
f 37/37/37 29/62/59 31/33/33
f 59/41/41 63/19/19 57/39/39
f 25/95/85 29/62/59 23/94/82
f 71/92/83 77/96/86 73/97/87
f 89/98/88 91/99/89 81/18/18
f 91/99/89 83/21/21 81/18/18
f 14/25/25 82/14/14 12/9/9
f 85/100/90 73/101/87 77/102/86
f 20/26/26 12/9/9 18/8/8
f 81/18/18 13/23/23 11/4/4
f 92/12/12 84/15/15 74/103/74
f 74/103/74 86/17/17 78/104/76
f 25/105/85 21/29/29 27/106/34
f 70/82/75 88/107/80 92/83/12
f 58/30/30 68/52/50 44/74/67
f 80/108/91 44/74/67 95/109/53
f 62/66/61 56/58/55 50/57/54
f 65/1/1 96/53/51 94/110/92
f 4/3/3 61/20/20 65/1/1
f 47/5/5 45/70/64 42/6/6
f 51/49/47 9/60/57 7/111/65
f 94/112/92 68/52/50 66/51/49
f 24/11/11 20/26/26 18/8/8
f 17/90/81 13/23/23 19/28/28
f 19/28/28 23/91/82 17/90/81
f 79/113/93 80/108/91 95/109/53
f 62/66/61 6/68/62 66/51/49
f 1/72/66 41/114/71 45/70/64
f 60/54/52 79/115/93 95/55/53
f 52/116/44 10/117/94 50/57/54
f 8/118/95 46/80/73 2/79/72
f 46/80/73 48/45/43 43/7/7
f 46/80/73 43/7/7 41/78/71
f 45/70/64 41/114/71 42/6/6
f 42/6/6 41/114/71 89/98/88
f 43/7/7 90/13/13 41/78/71
f 90/88/13 89/98/88 41/114/71
f 87/119/79 69/120/96 91/121/89
f 79/113/93 88/107/80 80/108/91
f 71/92/83 91/121/89 69/120/96
f 58/30/30 30/32/32 56/58/55
f 36/31/31 80/108/91 70/82/75
f 72/77/70 36/31/31 70/82/75
f 30/32/32 38/76/69 32/43/42
f 69/120/96 59/41/41 35/40/40
f 60/54/52 59/41/41 79/115/93
f 58/30/30 64/50/48 68/52/50
f 65/1/1 94/110/92 97/2/2
f 11/4/4 17/90/81 47/5/5
f 43/7/7 48/45/43 18/8/8
f 18/8/8 48/45/43 54/10/10
f 92/12/12 88/122/80 90/13/13
f 84/15/15 14/25/25 16/16/16
f 42/6/6 89/98/88 81/18/18
f 63/19/19 67/69/63 65/1/1
f 83/21/21 85/100/90 15/22/22
f 22/24/24 16/16/16 14/25/25
f 26/27/27 28/123/84 22/24/24
f 19/28/28 13/23/23 15/22/22
f 58/30/30 44/74/67 36/31/31
f 31/33/33 25/95/85 27/34/34
f 75/36/36 71/92/83 37/37/37
f 31/33/33 33/35/35 39/38/38
f 57/39/39 29/62/59 35/40/40
f 24/42/11 30/32/32 32/43/42
f 48/45/43 46/80/73 52/46/44
f 53/47/45 55/61/58 49/48/46
f 64/50/48 62/66/61 66/51/49
f 49/48/46 55/61/58 63/19/19
f 96/53/51 67/69/63 60/54/52
f 54/56/10 52/116/44 50/57/54
f 49/48/46 61/20/20 5/59/56
f 51/63/47 45/70/64 47/5/5
f 50/57/54 10/117/94 3/65/60
f 97/67/2 94/112/92 66/51/49
f 45/70/64 51/63/47 7/71/65
f 96/73/51 95/109/53 44/74/67
f 76/75/68 40/85/77 38/76/69
f 24/42/11 54/56/10 56/58/55
f 41/78/71 93/124/97 2/79/72
f 74/81/74 72/77/70 70/82/75
f 82/14/14 90/13/13 43/7/7
f 72/77/70 74/81/74 78/84/76
f 32/43/42 38/76/69 40/85/77
f 87/87/79 89/98/88 90/88/13
f 53/64/45 47/5/5 17/90/81
f 71/92/83 69/120/96 35/40/40
f 32/43/42 34/86/78 28/93/84
f 23/94/82 29/62/59 55/61/58
f 37/37/37 35/40/40 29/62/59
f 59/41/41 67/69/63 63/19/19
f 25/95/85 31/33/33 29/62/59
f 71/92/83 75/36/36 77/96/86
f 89/98/88 87/87/79 91/99/89
f 91/99/89 73/101/87 83/21/21
f 14/25/25 84/15/15 82/14/14
f 85/100/90 83/21/21 73/101/87
f 20/26/26 14/25/25 12/9/9
f 81/18/18 83/21/21 13/23/23
f 92/12/12 82/14/14 84/15/15
f 74/103/74 84/15/15 86/17/17
f 25/105/85 19/28/28 21/29/29
f 70/82/75 80/108/91 88/107/80
f 62/66/61 64/50/48 56/58/55
f 65/1/1 67/69/63 96/53/51
f 4/3/3 5/59/56 61/20/20
f 51/49/47 49/48/46 9/60/57
f 94/112/92 96/73/51 68/52/50
f 24/11/11 26/27/27 20/26/26
f 17/90/81 11/4/4 13/23/23
f 19/28/28 25/105/85 23/91/82
f 62/66/61 3/65/60 6/68/62
f 1/72/66 93/125/97 41/114/71
f 52/116/44 8/126/95 10/117/94
f 8/118/95 52/46/44 46/80/73
f 87/119/79 79/115/93 69/120/96
f 79/113/93 87/127/79 88/107/80
f 71/92/83 73/97/87 91/121/89
f 36/31/31 44/74/67 80/108/91
f 72/77/70 38/76/69 36/31/31
f 30/32/32 36/31/31 38/76/69
f 69/120/96 79/115/93 59/41/41
