# Blender v2.79 (sub 0) OBJ File: 'processing.blend'
# www.blender.org
v 0.137752 0.026868 -0.002355
v 0.085369 0.026309 -0.004352
v 0.140401 0.002005 -0.001659
v 0.088233 -0.001736 -0.003559
v 0.124743 0.028209 -0.032762
v 0.122056 0.025419 -0.045334
v 0.127823 0.019442 -0.050108
v 0.134280 0.020742 -0.034725
v 0.093680 0.027393 -0.030749
v 0.095374 0.024815 -0.044244
v 0.086618 0.018136 -0.036076
v 0.092197 0.019305 -0.051750
v 0.130629 0.005256 -0.050889
v 0.137691 0.003214 -0.039134
v 0.086795 0.001595 -0.041273
v 0.091267 0.003870 -0.053798
v 0.137097 0.003870 0.060952
v 0.133128 0.005507 0.084908
v 0.097747 0.002667 0.083636
v 0.098518 0.000306 0.062012
v 0.132671 0.048457 0.031999
v 0.089022 0.050630 0.029272
v 0.140063 0.003608 0.038530
v 0.096135 0.000351 0.039283
v 0.116849 0.024963 -0.048842
v 0.108818 0.025129 -0.049201
v 0.110438 0.020041 -0.059097
v 0.119507 0.019562 -0.057095
v 0.109234 0.055724 0.088068
v 0.120636 0.056009 0.087577
v 0.131422 0.053117 0.081959
v 0.113329 0.003028 -0.060523
v 0.123243 0.004521 -0.057551
v 0.126562 0.003899 0.090691
v 0.113586 0.003021 0.092157
v 0.114510 -0.000025 -0.044039
v 0.126905 0.000437 -0.043292
v 0.118047 0.029412 -0.032340
v 0.109348 0.029697 -0.031627
v 0.116763 -0.001417 0.039887
v 0.131217 -0.000522 0.039248
v 0.125079 0.056197 0.025998
v 0.111402 0.060002 0.023409
v 0.100359 0.024952 -0.047136
v 0.100051 0.019875 -0.057392
v 0.092170 0.049182 0.077476
v 0.097690 0.053648 0.086677
v 0.099789 0.003786 -0.058920
v 0.103187 0.002119 0.090224
v 0.098346 -0.000743 -0.043086
v 0.099908 0.029138 -0.030390
v 0.109012 -0.001149 0.039311
v 0.097222 0.059517 0.024373
v 0.137018 0.045189 0.054221
v 0.090006 0.042251 0.052014
v 0.132671 0.048457 0.031999
v 0.089022 0.050630 0.029272
v 0.109234 0.055724 0.088068
v 0.120636 0.056009 0.087577
v 0.131422 0.053117 0.081959
v 0.125079 0.056197 0.025998
v 0.111402 0.060002 0.023409
v 0.092170 0.049182 0.077476
v 0.097690 0.053648 0.086677
v 0.097222 0.059517 0.024373
v 0.137018 0.045189 0.054221
v 0.090006 0.042251 0.052014
v 0.117570 0.040078 0.078506
v 0.123113 0.037078 0.074761
v 0.111074 0.040016 0.078892
v 0.126403 0.034671 0.041282
v 0.120231 0.039234 0.030647
v 0.111439 0.042828 0.026549
v 0.103013 0.034038 0.069846
v 0.107021 0.038242 0.077471
v 0.103140 0.039337 0.031325
v 0.099124 0.033405 0.041972
v 0.127031 0.028887 0.056517
v 0.099654 0.027051 0.055564
v -0.099654 0.027051 0.055564
v -0.127031 0.028887 0.056517
v -0.099124 0.033405 0.041972
v -0.103140 0.039337 0.031325
v -0.107021 0.038242 0.077471
v -0.103013 0.034038 0.069846
v -0.111439 0.042828 0.026549
v -0.120231 0.039234 0.030647
v -0.126403 0.034671 0.041282
v -0.111074 0.040016 0.078892
v -0.123113 0.037078 0.074761
v -0.117570 0.040078 0.078506
v -0.090006 0.042251 0.052014
v -0.137018 0.045189 0.054221
v -0.097222 0.059517 0.024373
v -0.097690 0.053648 0.086677
v -0.092170 0.049182 0.077476
v -0.111402 0.060002 0.023409
v -0.125079 0.056197 0.025998
v -0.131422 0.053117 0.081959
v -0.120636 0.056009 0.087577
v -0.109234 0.055724 0.088068
v -0.089022 0.050630 0.029272
v -0.132671 0.048457 0.031999
v -0.090006 0.042251 0.052014
v -0.137018 0.045189 0.054221
v -0.097222 0.059517 0.024373
v -0.109012 -0.001149 0.039311
v -0.099908 0.029138 -0.030390
v -0.098346 -0.000743 -0.043086
v -0.103187 0.002119 0.090224
v -0.099789 0.003786 -0.058920
v -0.097690 0.053648 0.086677
v -0.092170 0.049182 0.077476
v -0.100051 0.019875 -0.057392
v -0.100359 0.024952 -0.047136
v -0.111402 0.060002 0.023409
v -0.125079 0.056197 0.025998
v -0.131217 -0.000522 0.039248
v -0.116763 -0.001417 0.039887
v -0.109348 0.029697 -0.031627
v -0.118047 0.029412 -0.032340
v -0.126905 0.000437 -0.043292
v -0.114510 -0.000025 -0.044039
v -0.113586 0.003021 0.092157
v -0.126562 0.003899 0.090691
v -0.123243 0.004521 -0.057551
v -0.113329 0.003028 -0.060523
v -0.131422 0.053117 0.081959
v -0.120636 0.056009 0.087577
v -0.109234 0.055724 0.088068
v -0.119507 0.019562 -0.057095
v -0.110438 0.020041 -0.059097
v -0.108818 0.025129 -0.049201
v -0.116849 0.024963 -0.048842
v -0.096135 0.000351 0.039283
v -0.140063 0.003608 0.038530
v -0.089022 0.050630 0.029272
v -0.132671 0.048457 0.031999
v -0.098518 0.000306 0.062012
v -0.097747 0.002667 0.083636
v -0.133128 0.005507 0.084908
v -0.137097 0.003870 0.060952
v -0.091267 0.003870 -0.053798
v -0.086795 0.001595 -0.041273
v -0.137691 0.003214 -0.039134
v -0.130629 0.005256 -0.050889
v -0.092197 0.019305 -0.051750
v -0.086618 0.018136 -0.036076
v -0.095374 0.024815 -0.044244
v -0.093680 0.027393 -0.030749
v -0.134280 0.020742 -0.034725
v -0.127823 0.019442 -0.050108
v -0.122056 0.025419 -0.045334
v -0.124743 0.028209 -0.032762
v -0.088233 -0.001736 -0.003559
v -0.140401 0.002005 -0.001659
v -0.085369 0.026309 -0.004352
v -0.137752 0.026868 -0.002355
vt 0.354002 0.104115
vt 0.254825 0.062695
vt 0.353976 0.072801
vt 0.714513 0.131447
vt 0.782032 0.068411
vt 0.787389 0.127784
vt 0.209551 0.873616
vt 0.163127 0.812128
vt 0.229610 0.837478
vt 0.640330 0.478050
vt 0.685081 0.440008
vt 0.707269 0.453088
vt 0.710286 0.184734
vt 0.746789 0.205111
vt 0.693444 0.232744
vt 0.258791 0.228680
vt 0.353943 0.200799
vt 0.356118 0.243086
vt 0.160118 0.057433
vt 0.131774 0.085238
vt 0.351427 0.137715
vt 0.129360 0.181555
vt 0.123139 0.124759
vt 0.153911 0.211650
vt 0.181217 0.798168
vt 0.218033 0.759574
vt 0.236217 0.810243
vt 0.631981 0.398216
vt 0.631999 0.449819
vt 0.698054 0.404928
vt 0.762463 0.450670
vt 0.735049 0.423492
vt 0.710831 0.061786
vt 0.760653 0.030460
vt 0.774956 0.171738
vt 0.156948 0.772049
vt 0.652852 0.513598
vt 0.724570 0.482058
vt 0.530909 0.243086
vt 0.138802 0.839302
vt 0.127126 0.788791
vt 0.658041 0.323680
vt 0.755044 0.362973
vt 0.797677 0.383070
vt 0.095830 0.815707
vt 0.093900 0.736676
vt 0.131394 0.717232
vt 0.185563 0.692885
vt 0.493676 0.309300
vt 0.493677 0.418934
vt 0.550000 0.660802
vt 0.353442 0.787785
vt 0.350185 0.663858
vt 0.400225 0.615314
vt 0.606183 0.854524
vt 0.504192 0.889292
vt 0.747624 0.675584
vt 0.721353 0.883206
vt 0.787973 0.671946
vt 0.773559 0.901457
vt 0.828995 0.675735
vt 0.013442 0.316620
vt 0.067248 0.546857
vt 0.017058 0.550341
vt 0.071108 0.315353
vt 0.120066 0.531201
vt 0.541412 0.015593
vt 0.109890 0.321095
vt 0.244956 0.496939
vt 0.344210 0.514655
vt 0.316628 0.314170
vt 0.373041 0.559299
vt 0.456120 0.991165
vt 0.705211 0.010808
vt 0.645175 0.630146
vt 0.623258 0.560286
vt 0.663317 0.549205
vt 0.864594 0.143125
vt 0.851006 0.229400
vt 0.827793 0.213352
vt 0.861190 0.259517
vt 0.936222 0.344219
vt 0.852795 0.347482
vt 0.859748 0.604860
vt 0.846384 0.533323
vt 0.911589 0.603840
vt 0.966020 0.494173
vt 0.885116 0.512047
vt 0.891487 0.467648
vt 0.953764 0.441858
vt 0.883012 0.411411
vt 0.933893 0.216817
vt 0.905908 0.170395
vt 0.591313 0.633608
vt 0.603474 0.556469
vt 0.755167 0.593833
vt 0.790738 0.533291
vt 0.727147 0.519358
vt 0.790738 0.533291
vt 0.755167 0.593833
vt 0.859748 0.604860
vt 0.663317 0.549205
vt 0.645175 0.630146
vt 0.591313 0.633608
vt 0.603474 0.556469
vt 0.559021 0.622120
vt 0.885116 0.512047
vt 0.911589 0.603840
vt 0.948056 0.554116
vt 0.851006 0.229400
vt 0.933893 0.216817
vt 0.905908 0.170395
vt 0.936222 0.344219
vt 0.883012 0.411411
vt 0.953764 0.441858
vt 0.891487 0.467648
vt 0.966020 0.494173
vt 0.846384 0.533323
vt 0.861190 0.259517
vt 0.864594 0.143125
vt 0.623258 0.560286
vt 0.129360 0.181555
vt 0.258791 0.228680
vt 0.353943 0.200799
vt 0.530909 0.243086
vt 0.710286 0.184734
vt 0.356118 0.243086
vt 0.351427 0.137715
vt 0.354002 0.104115
vt 0.714513 0.131447
vt 0.710831 0.061786
vt 0.705211 0.010808
vt 0.541412 0.015593
vt 0.218033 0.759574
vt 0.350185 0.663858
vt 0.185563 0.692885
vt 0.456120 0.991165
vt 0.229610 0.837478
vt 0.209551 0.873616
vt 0.353442 0.787785
vt 0.236217 0.810243
vt 0.316628 0.314170
vt 0.493677 0.418934
vt 0.493676 0.309300
vt 0.504192 0.889292
vt 0.631981 0.398216
vt 0.631999 0.449819
vt 0.373041 0.559299
vt 0.344210 0.514655
vt 0.244956 0.496939
vt 0.216949 0.314586
vt 0.109890 0.321095
vt 0.120066 0.531201
vt 0.353976 0.072801
vt 0.071108 0.315353
vt 0.067248 0.546857
vt 0.013442 0.316620
vt 0.017058 0.550341
vt 0.828995 0.675735
vt 0.773559 0.901457
vt 0.807516 0.910418
vt 0.721353 0.883206
vt 0.787973 0.671946
vt 0.747624 0.675584
vt 0.606183 0.854524
vt 0.651571 0.663720
vt 0.550000 0.660802
vt 0.640330 0.478050
vt 0.400225 0.615314
vt 0.652852 0.513598
vt 0.658041 0.323680
vt 0.156948 0.772049
vt 0.131394 0.717232
vt 0.127126 0.788791
vt 0.093900 0.736676
vt 0.095830 0.815707
vt 0.046414 0.765509
vt 0.735049 0.423492
vt 0.797677 0.383070
vt 0.755044 0.362973
vt 0.698054 0.404928
vt 0.713694 0.348303
vt 0.138802 0.839302
vt 0.693444 0.232744
vt 0.707269 0.453088
vt 0.181217 0.798168
vt 0.163127 0.812128
vt 0.774956 0.171738
vt 0.760653 0.030460
vt 0.782032 0.068411
vt 0.762463 0.450670
vt 0.724570 0.482058
vt 0.685081 0.440008
vt 0.131774 0.085238
vt 0.153911 0.211650
vt 0.254825 0.062695
vt 0.160118 0.057433
vt 0.746789 0.205111
vt 0.787389 0.127784
vt 0.713694 0.348303
vt 0.046414 0.765509
vt 0.651571 0.663720
vt 0.807516 0.910418
vt 0.216949 0.314586
vt 0.483205 0.935913
vt 0.948056 0.554116
vt 0.559021 0.622120
vt 0.727147 0.519358
vt 0.852795 0.347482
vt 0.827793 0.213352
vt 0.483205 0.935913
vt 0.123139 0.124759
vn -0.0559 -0.9980 0.0280
vn -0.6202 -0.7820 0.0614
vn -0.6908 -0.7157 0.1028
vn 0.0436 -0.9901 -0.1336
vn -0.2730 -0.5307 -0.8024
vn 0.0917 -0.5893 -0.8026
vn -0.0495 0.9284 -0.3682
vn -0.1858 0.9156 -0.3567
vn -0.1872 0.9220 -0.3389
vn 0.0804 0.9304 -0.3576
vn 0.3267 0.8691 -0.3712
vn 0.1514 0.9048 -0.3978
vn 0.1982 -0.9601 -0.1973
vn 0.7200 -0.3543 -0.5967
vn 0.8427 -0.4636 -0.2737
vn 0.8076 -0.5690 0.1549
vn 0.2373 -0.9703 0.0459
vn 0.8762 -0.4791 0.0525
vn -0.7572 -0.5720 0.3153
vn -0.3670 -0.6228 0.6909
vn 0.0184 -0.9993 0.0328
vn 0.3669 -0.5776 0.7292
vn 0.0199 -0.6178 0.7861
vn 0.7806 -0.4619 0.4210
vn -0.4434 0.8463 -0.2952
vn -0.9325 0.3193 -0.1688
vn -0.5230 0.8116 -0.2601
vn 0.8235 0.5106 -0.2473
vn 0.4041 0.8628 -0.3038
vn 0.6669 0.5092 -0.5440
vn 0.0201 0.5351 -0.8445
vn 0.3778 0.5134 -0.7705
vn -0.0806 -0.9843 -0.1569
vn -0.6704 -0.4552 -0.5860
vn 0.4566 -0.4729 -0.7536
vn -0.7088 0.4738 -0.5226
vn -0.0351 0.9315 -0.3618
vn 0.8101 -0.5844 -0.0463
vn -0.3265 0.5307 -0.7821
vn -0.7951 -0.5710 -0.2042
vn 0.9167 0.3711 -0.1481
vn -0.9832 0.1758 -0.0498
vn -0.6704 -0.7396 0.0595
vn 0.1161 0.8767 -0.4668
vn -0.9889 -0.1419 0.0434
vn -0.9760 0.1925 -0.1013
vn -0.9300 -0.0755 0.3598
vn -0.4959 0.0132 0.8683
vn 0.2435 0.0935 0.9654
vn -0.0443 0.0736 0.9963
vn 0.7741 0.0868 0.6270
vn 0.9964 0.0760 0.0379
vn 0.9308 0.3301 -0.1565
vn 0.5860 0.7264 -0.3592
vn 0.5768 0.6584 -0.4835
vn 0.3071 0.6171 -0.7244
vn 0.6821 0.6002 -0.4177
vn -0.0192 0.5034 -0.8638
vn -0.1776 0.5091 -0.8422
vn -0.0017 0.5154 -0.8569
vn -0.6329 0.5411 -0.5538
vn -0.8438 0.5345 -0.0471
vn -0.8545 0.5085 -0.1061
vn 0.4124 0.5364 0.7363
vn 0.3756 0.5409 0.7526
vn 0.1549 0.3002 0.9412
vn -0.2498 0.2737 0.9288
vn 0.0082 0.3059 0.9520
vn -0.4033 0.4590 0.7916
vn -0.5742 0.5033 0.6457
vn -0.7452 0.5714 0.3437
vn -0.5142 0.5603 -0.6493
vn -0.1628 0.5117 -0.8436
vn 0.2399 0.5953 -0.7668
vn 0.8116 0.5838 -0.0199
vn 0.7235 0.6194 0.3046
vn 0.8501 0.5033 -0.1549
vn -0.7235 0.6194 0.3046
vn -0.8116 0.5838 -0.0199
vn -0.4124 0.5364 0.7363
vn -0.6821 0.6002 -0.4177
vn -0.5768 0.6584 -0.4835
vn -0.2399 0.5953 -0.7668
vn 0.0017 0.5154 -0.8569
vn 0.0192 0.5034 -0.8638
vn -0.0082 0.3059 0.9520
vn -0.1549 0.3002 0.9412
vn 0.0284 0.1797 0.9833
vn 0.1776 0.5091 -0.8422
vn 0.5142 0.5603 -0.6493
vn 0.1628 0.5117 -0.8436
vn 0.8438 0.5345 -0.0471
vn 0.7452 0.5714 0.3437
vn 0.5742 0.5033 0.6457
vn 0.4033 0.4590 0.7916
vn 0.2498 0.2737 0.9288
vn -0.3756 0.5409 0.7526
vn 0.6329 0.5411 -0.5538
vn -0.3071 0.6171 -0.7244
vn -0.3669 -0.5776 0.7292
vn -0.8076 -0.5690 0.1549
vn -0.2373 -0.9703 0.0459
vn -0.8101 -0.5844 -0.0463
vn -0.1982 -0.9601 -0.1973
vn -0.8762 -0.4791 0.0525
vn -0.0184 -0.9993 0.0328
vn 0.0559 -0.9980 0.0280
vn -0.0436 -0.9901 -0.1336
vn 0.0806 -0.9843 -0.1569
vn 0.7951 -0.5710 -0.2042
vn 0.6704 -0.7396 0.0595
vn 0.9325 0.3193 -0.1688
vn -0.1161 0.8767 -0.4668
vn 0.1872 0.9220 -0.3389
vn 0.0495 0.9284 -0.3682
vn 0.9832 0.1758 -0.0498
vn 0.5230 0.8116 -0.2601
vn -0.9167 0.3711 -0.1481
vn 0.9760 0.1925 -0.1013
vn -0.8235 0.5106 -0.2473
vn -0.4041 0.8628 -0.3038
vn -0.5860 0.7264 -0.3592
vn -0.9308 0.3301 -0.1565
vn -0.9964 0.0760 0.0379
vn -0.7806 -0.4619 0.4210
vn -0.7741 0.0868 0.6270
vn 0.6908 -0.7157 0.1028
vn -0.2435 0.0935 0.9654
vn -0.0199 -0.6178 0.7861
vn 0.0443 0.0736 0.9963
vn 0.4959 0.0132 0.8683
vn 0.9300 -0.0755 0.3598
vn 0.3670 -0.6228 0.6909
vn 0.7572 -0.5720 0.3153
vn 0.9889 -0.1419 0.0434
vn 0.6202 -0.7820 0.0614
vn -0.0804 0.9304 -0.3576
vn -0.8427 -0.4636 -0.2737
vn 0.7088 0.4738 -0.5226
vn 0.6704 -0.4552 -0.5860
vn 0.3265 0.5307 -0.7821
vn 0.2730 -0.5307 -0.8024
vn -0.0201 0.5351 -0.8445
vn -0.0917 -0.5893 -0.8026
vn -0.3778 0.5134 -0.7705
vn -0.4566 -0.4729 -0.7536
vn -0.6669 0.5092 -0.5440
vn -0.7200 -0.3543 -0.5967
vn 0.0351 0.9315 -0.3618
vn -0.1514 0.9048 -0.3978
vn 0.4434 0.8463 -0.2952
vn 0.1858 0.9156 -0.3567
vn -0.3267 0.8691 -0.3712
vn -0.4728 0.7605 -0.4451
vn -0.0284 0.1797 0.9833
vn -0.8501 0.5033 -0.1549
vn 0.8545 0.5085 -0.1061
vn 0.4728 0.7605 -0.4451
s 1
f 52/1/1 20/2/2 24/3/3
f 36/4/4 48/5/5 32/6/6
f 39/7/7 44/8/8 51/9/9
f 38/10/10 6/11/11 25/12/12
f 37/13/13 13/14/14 14/15/15
f 17/16/16 41/17/17 23/18/18
f 19/19/19 20/2/2 49/20/20
f 20/2/2 52/1/1 49/20/20
f 40/21/21 34/22/22 35/23/23
f 18/24/24 34/22/22 17/16/16
f 40/21/21 49/20/20 52/1/1
f 10/25/25 11/26/26 9/27/27
f 8/28/28 6/11/11 5/29/29
f 7/30/30 25/12/12 6/11/11
f 27/31/31 25/12/12 28/32/32
f 50/33/33 16/34/34 48/5/5
f 36/4/4 33/35/35 37/13/13
f 44/8/8 12/36/36 10/25/25
f 51/9/9 10/25/25 9/27/27
f 39/37/7 25/12/12 26/38/37
f 14/15/15 3/39/38 37/13/13
f 26/40/37 45/41/39 44/8/8
f 14/42/15 7/30/30 8/28/28
f 7/30/30 33/43/35 28/32/32
f 28/32/32 32/44/6 27/31/31
f 27/45/31 48/46/5 45/41/39
f 45/41/39 16/47/34 12/36/36
f 15/48/40 12/36/36 16/47/34
f 3/49/38 8/28/28 1/50/41
f 24/51/3 2/52/42 4/53/43
f 43/54/44 38/10/10 39/37/7
f 24/51/3 55/55/45 22/56/46
f 55/55/45 19/57/19 46/58/47
f 46/58/47 49/59/20 47/60/48
f 35/61/23 47/60/48 49/59/20
f 35/62/23 30/63/49 29/64/50
f 34/65/22 31/66/51 30/63/49
f 50/33/33 52/1/1 4/67/43
f 24/3/3 4/67/43 52/1/1
f 18/68/24 54/69/52 31/66/51
f 22/56/46 51/9/9 9/27/27
f 5/29/29 21/70/53 1/50/41
f 54/69/52 23/71/18 21/70/53
f 42/72/54 5/29/29 38/10/10
f 8/28/28 5/29/29 1/50/41
f 2/52/42 22/56/46 9/27/27
f 1/50/41 23/71/18 3/49/38
f 2/52/42 9/27/27 11/26/26
f 51/9/9 43/73/44 39/7/7
f 4/53/43 11/26/26 15/48/40
f 50/33/33 4/67/43 15/74/40
f 52/1/1 36/4/4 40/21/21
f 37/13/13 40/21/21 36/4/4
f 23/18/18 41/17/17 3/39/38
f 3/39/38 41/17/17 37/13/13
f 34/22/22 41/17/17 17/16/16
f 63/75/55 75/76/56 74/77/57
f 58/78/58 68/79/59 70/80/60
f 69/81/61 66/82/62 78/83/63
f 57/84/64 76/85/65 65/86/66
f 61/87/67 73/88/68 72/89/69
f 72/89/69 56/90/70 61/87/67
f 71/91/71 66/82/62 56/90/70
f 60/92/72 68/79/59 59/93/73
f 73/88/68 65/86/66 76/85/65
f 64/94/74 70/95/60 75/76/56
f 74/77/57 67/96/75 63/75/55
f 77/97/76 67/96/75 79/98/77
f 82/99/78 92/100/79 102/101/80
f 92/100/79 85/102/81 96/103/82
f 95/104/83 89/105/84 101/106/85
f 86/107/86 94/108/87 97/109/88
f 91/110/89 99/111/90 100/112/91
f 93/113/92 88/114/93 103/115/94
f 87/116/95 103/115/94 88/114/93
f 98/117/96 86/107/86 97/109/88
f 83/118/97 102/101/80 94/108/87
f 90/119/98 93/113/92 99/111/90
f 101/120/85 91/110/89 100/112/91
f 96/103/82 84/121/99 95/104/83
f 125/122/100 142/123/101 118/124/102
f 156/125/103 122/126/104 118/124/102
f 136/127/105 156/125/103 118/124/102
f 122/126/104 119/128/106 118/124/102
f 107/129/107 123/130/108 109/131/109
f 109/131/109 144/132/110 155/133/111
f 148/134/112 155/135/111 144/136/110
f 116/137/113 108/138/114 120/139/115
f 157/140/116 148/134/112 150/141/117
f 136/142/105 158/143/118 156/144/103
f 157/140/116 150/141/117 137/145/119
f 151/146/120 158/143/118 154/147/121
f 117/148/122 154/147/121 138/149/123
f 105/150/124 136/142/105 142/151/101
f 154/147/121 158/143/118 138/149/123
f 108/138/114 137/145/119 150/141/117
f 105/150/124 141/152/125 128/153/126
f 135/154/127 107/129/107 155/133/111
f 109/131/109 155/133/111 107/129/107
f 128/153/126 125/155/100 129/156/128
f 129/156/128 124/157/129 130/158/130
f 124/159/129 112/160/131 130/161/130
f 113/162/132 110/163/133 140/164/134
f 104/165/135 140/164/134 139/166/136
f 104/165/135 135/167/127 137/145/119
f 121/168/137 116/169/113 120/170/115
f 135/167/127 157/140/116 137/145/119
f 156/144/103 151/146/120 145/171/138
f 147/172/139 144/136/110 143/173/140
f 114/174/141 143/173/140 111/175/142
f 132/176/143 111/175/142 127/177/144
f 131/178/145 127/179/144 126/180/146
f 152/181/147 126/180/146 146/182/148
f 152/181/147 145/171/138 151/146/120
f 133/183/149 114/174/141 132/176/143
f 145/184/138 122/126/104 156/125/103
f 120/170/115 134/185/150 121/168/137
f 108/138/114 149/186/151 115/187/152
f 115/187/152 147/172/139 114/174/141
f 126/188/146 123/130/108 122/126/104
f 143/189/140 109/131/109 111/190/142
f 132/191/143 134/185/150 133/192/149
f 134/185/150 152/181/147 153/193/153
f 153/193/153 151/146/120 154/147/121
f 149/186/151 148/134/112 147/172/139
f 110/194/133 119/128/106 107/129/107
f 141/195/125 142/123/101 125/122/100
f 119/128/106 125/122/100 118/124/102
f 139/196/136 110/194/133 107/129/107
f 140/197/134 110/194/133 139/196/136
f 142/123/101 136/127/105 118/124/102
f 122/126/104 146/198/148 126/188/146
f 153/193/153 121/168/137 134/185/150
f 120/139/115 115/187/152 133/183/149
f 111/190/142 123/130/108 127/199/144
f 107/129/107 135/154/127 139/196/136
f 36/4/4 50/33/33 48/5/5
f 39/7/7 26/40/37 44/8/8
f 38/10/10 5/29/29 6/11/11
f 37/13/13 33/35/35 13/14/14
f 40/21/21 41/17/17 34/22/22
f 40/21/21 35/23/23 49/20/20
f 10/25/25 12/36/36 11/26/26
f 8/28/28 7/30/30 6/11/11
f 7/30/30 28/32/32 25/12/12
f 27/31/31 26/38/37 25/12/12
f 50/33/33 15/74/40 16/34/34
f 36/4/4 32/6/6 33/35/35
f 44/8/8 45/41/39 12/36/36
f 51/9/9 44/8/8 10/25/25
f 39/37/7 38/10/10 25/12/12
f 26/40/37 27/45/31 45/41/39
f 14/42/15 13/200/14 7/30/30
f 7/30/30 13/200/14 33/43/35
f 28/32/32 33/43/35 32/44/6
f 27/45/31 32/201/6 48/46/5
f 45/41/39 48/46/5 16/47/34
f 15/48/40 11/26/26 12/36/36
f 3/49/38 14/42/15 8/28/28
f 24/51/3 22/56/46 2/52/42
f 43/54/44 42/72/54 38/10/10
f 24/51/3 20/202/2 55/55/45
f 55/55/45 20/202/2 19/57/19
f 46/58/47 19/57/19 49/59/20
f 35/61/23 29/203/50 47/60/48
f 35/62/23 34/65/22 30/63/49
f 34/65/22 18/68/24 31/66/51
f 18/68/24 17/204/16 54/69/52
f 22/56/46 53/205/154 51/9/9
f 54/69/52 17/204/16 23/71/18
f 42/72/54 21/70/53 5/29/29
f 1/50/41 21/70/53 23/71/18
f 51/9/9 53/205/154 43/73/44
f 4/53/43 2/52/42 11/26/26
f 52/1/1 50/33/33 36/4/4
f 37/13/13 41/17/17 40/21/21
f 63/75/55 64/94/74 75/76/56
f 58/78/58 59/93/73 68/79/59
f 69/81/61 60/92/72 66/82/62
f 57/84/64 77/97/76 76/85/65
f 61/87/67 62/206/155 73/88/68
f 72/89/69 71/91/71 56/90/70
f 71/91/71 78/83/63 66/82/62
f 60/92/72 69/81/61 68/79/59
f 73/88/68 62/206/155 65/86/66
f 64/94/74 58/207/58 70/95/60
f 74/77/57 79/98/77 67/96/75
f 77/97/76 57/84/64 67/96/75
f 82/99/78 80/208/156 92/100/79
f 92/100/79 80/208/156 85/102/81
f 95/104/83 84/121/99 89/105/84
f 86/107/86 83/118/97 94/108/87
f 91/110/89 90/119/98 99/111/90
f 93/113/92 81/209/157 88/114/93
f 87/116/95 98/117/96 103/115/94
f 98/117/96 87/116/95 86/107/86
f 83/118/97 82/99/78 102/101/80
f 90/119/98 81/209/157 93/113/92
f 101/120/85 89/210/84 91/110/89
f 96/103/82 85/102/81 84/121/99
f 122/126/104 123/130/108 119/128/106
f 107/129/107 119/128/106 123/130/108
f 148/134/112 157/140/116 155/135/111
f 116/137/113 106/211/158 108/138/114
f 136/142/105 138/149/123 158/143/118
f 117/148/122 121/168/137 154/147/121
f 105/150/124 138/149/123 136/142/105
f 108/138/114 106/211/158 137/145/119
f 105/150/124 142/151/101 141/152/125
f 128/153/126 141/152/125 125/155/100
f 129/156/128 125/155/100 124/157/129
f 124/159/129 110/163/133 112/160/131
f 113/162/132 112/160/131 110/163/133
f 104/165/135 113/162/132 140/164/134
f 104/165/135 139/166/136 135/167/127
f 121/168/137 117/148/122 116/169/113
f 135/167/127 155/135/111 157/140/116
f 156/144/103 158/143/118 151/146/120
f 147/172/139 148/134/112 144/136/110
f 114/174/141 147/172/139 143/173/140
f 132/176/143 114/174/141 111/175/142
f 131/178/145 132/191/143 127/179/144
f 152/181/147 131/178/145 126/180/146
f 152/181/147 146/182/148 145/171/138
f 133/183/149 115/187/152 114/174/141
f 120/170/115 133/192/149 134/185/150
f 108/138/114 150/141/117 149/186/151
f 115/187/152 149/186/151 147/172/139
f 126/188/146 127/199/144 123/130/108
f 143/189/140 144/132/110 109/131/109
f 132/191/143 131/178/145 134/185/150
f 134/185/150 131/178/145 152/181/147
f 153/193/153 152/181/147 151/146/120
f 149/186/151 150/141/117 148/134/112
f 110/194/133 124/212/129 119/128/106
f 119/128/106 124/212/129 125/122/100
f 122/126/104 145/184/138 146/198/148
f 153/193/153 154/147/121 121/168/137
f 120/139/115 108/138/114 115/187/152
f 111/190/142 109/131/109 123/130/108
